<svg width="30" height="31" viewBox="0 0 30 31" fill="none" xmlns="http://www.w3.org/2000/svg">
<g id="CollaborationIcon">
<path id="Vector" d="M6.75 3.5C7.74456 3.5 8.69839 3.89509 9.40165 4.59835C10.1049 5.30161 10.5 6.25544 10.5 7.25C10.5 8.24456 10.1049 9.19839 9.40165 9.90165C8.69839 10.6049 7.74456 11 6.75 11C5.75544 11 4.80161 10.6049 4.09835 9.90165C3.39509 9.19839 3 8.24456 3 7.25C3 6.25544 3.39509 5.30161 4.09835 4.59835C4.80161 3.89509 5.75544 3.5 6.75 3.5ZM24 3.5C24.9946 3.5 25.9484 3.89509 26.6517 4.59835C27.3549 5.30161 27.75 6.25544 27.75 7.25C27.75 8.24456 27.3549 9.19839 26.6517 9.90165C25.9484 10.6049 24.9946 11 24 11C23.0054 11 22.0516 10.6049 21.3483 9.90165C20.6451 9.19839 20.25 8.24456 20.25 7.25C20.25 6.25544 20.6451 5.30161 21.3483 4.59835C22.0516 3.89509 23.0054 3.5 24 3.5ZM0 17.5016C0 14.7406 2.24062 12.5 5.00156 12.5H7.00312C7.74844 12.5 8.45625 12.6641 9.09375 12.9547C9.03281 13.2922 9.00469 13.6438 9.00469 14C9.00469 15.7906 9.79219 17.3984 11.0344 18.5C11.025 18.5 11.0156 18.5 11.0016 18.5H0.998437C0.45 18.5 0 18.05 0 17.5016ZM18.9984 18.5C18.9891 18.5 18.9797 18.5 18.9656 18.5C20.2125 17.3984 20.9953 15.7906 20.9953 14C20.9953 13.6438 20.9625 13.2969 20.9062 12.9547C21.5438 12.6594 22.2516 12.5 22.9969 12.5H24.9984C27.7594 12.5 30 14.7406 30 17.5016C30 18.0547 29.55 18.5 29.0016 18.5H18.9984ZM10.5 14C10.5 12.8065 10.9741 11.6619 11.818 10.818C12.6619 9.97411 13.8065 9.5 15 9.5C16.1935 9.5 17.3381 9.97411 18.182 10.818C19.0259 11.6619 19.5 12.8065 19.5 14C19.5 15.1935 19.0259 16.3381 18.182 17.182C17.3381 18.0259 16.1935 18.5 15 18.5C13.8065 18.5 12.6619 18.0259 11.818 17.182C10.9741 16.3381 10.5 15.1935 10.5 14ZM6 26.2484C6 22.7984 8.79844 20 12.2484 20H17.7516C21.2016 20 24 22.7984 24 26.2484C24 26.9375 23.4422 27.5 22.7484 27.5H7.25156C6.5625 27.5 6 26.9422 6 26.2484Z" fill="#000080"/>
</g>
</svg>
