<svg width="150" height="54" viewBox="0 0 150 54" fill="none" xmlns="http://www.w3.org/2000/svg">
<path d="M1.86093 27.5123C1.42519 27.5123 1.07071 27.1578 1.07071 26.7221C1.07071 26.2862 1.42519 25.9317 1.86093 25.9317C2.29666 25.9317 2.65098 26.2862 2.65098 26.7221C2.65098 27.1578 2.29666 27.5123 1.86093 27.5123ZM23.7324 10.829C27.466 10.8218 31.1997 10.8218 34.9333 10.8218C37.0376 10.8397 39.1908 11.8033 40.4656 13.6911C41.2006 14.9652 41.2039 16.6497 40.7291 18.0273C39.6167 20.2863 37.1808 21.3177 34.9431 21.407C31.2159 21.4177 27.4854 21.4177 23.7551 21.3998C23.6965 17.8773 23.7129 14.3513 23.7324 10.829ZM8.07041 22.8517C7.6345 22.8517 7.28001 22.4972 7.28001 22.0615C7.28001 21.6258 7.6345 21.2715 8.07041 21.2715C8.50614 21.2715 8.86063 21.6258 8.86063 22.0615C8.86063 22.4972 8.50614 22.8517 8.07041 22.8517ZM34.6016 27.399C37.2686 27.374 39.8899 26.4818 42.1536 24.9509C44.8076 23.2057 46.7427 20.1828 47.1753 16.7996C48.4728 16.8032 49.7673 16.8066 51.065 16.8103C51.1462 14.5262 50.8894 12.1993 50.0177 10.108C47.5199 3.90537 41.3795 -0.113189 35.2521 0.00462829C28.058 0.0367133 20.8637 -0.0524682 13.6729 0.0546542C13.6956 7.17442 13.7118 14.2978 13.6403 21.4212C12.3636 21.402 11.0869 21.4082 9.81024 21.4072C9.54459 20.7036 8.86598 20.2008 8.07041 20.2008C7.04438 20.2008 6.20948 21.0355 6.20948 22.0615C6.20948 23.0875 7.04438 23.9224 8.07041 23.9224C8.80974 23.9224 9.44782 23.4877 9.7478 22.8616C18.2451 22.8291 26.7453 22.8522 35.2424 22.8488C37.9126 22.6953 40.7388 21.2249 41.952 18.4947C42.6284 16.5782 42.5211 14.1765 41.2787 12.5562C39.7469 10.5042 37.3271 9.45487 34.9399 9.45142C30.7802 9.41209 26.6171 9.42985 22.4574 9.44779C22.4119 13.4341 22.4867 17.4242 22.4086 21.4105C19.9465 21.3998 17.4846 21.4319 15.0225 21.3855C14.964 14.7332 15.003 8.07728 14.9737 1.42499C22.0574 1.38584 29.1377 1.39998 36.2214 1.4143C42.9471 1.63199 49.6144 7.72038 49.7771 15.3685C48.4859 15.3828 47.1915 15.3792 45.9003 15.397C46.0597 19.2335 43.6301 22.6239 40.5989 24.2442C38.2865 25.6574 35.5969 26.0571 32.982 25.9893C23.1809 25.9823 13.3767 25.9755 3.57247 25.9928C3.28819 25.3281 2.62821 24.8612 1.86093 24.8612C0.834899 24.8612 0 25.6961 0 26.7221C0 27.7481 0.834899 28.583 1.86093 28.583C2.64287 28.583 3.31252 28.0975 3.58731 27.4125C13.9254 27.383 24.2635 27.4166 34.6016 27.399Z" fill="black"/>
<path d="M18.7962 18.6847C18.3603 18.6847 18.006 18.3302 18.006 17.8945C18.006 17.4586 18.3603 17.1041 18.7962 17.1041C19.2319 17.1041 19.5864 17.4586 19.5864 17.8945C19.5864 18.3302 19.2319 18.6847 18.7962 18.6847ZM46.5882 11.8447C46.5882 12.2805 46.2337 12.635 45.798 12.635C45.3621 12.635 45.0076 12.2805 45.0076 11.8447C45.0076 11.4088 45.3621 11.0543 45.798 11.0543C46.2337 11.0543 46.5882 11.4088 46.5882 11.8447ZM35.9222 5.71857C39.2578 5.77135 42.349 7.81686 44.3615 10.6629C44.0964 10.9845 43.937 11.3964 43.937 11.8447C43.937 12.8708 44.7719 13.7055 45.798 13.7055C46.824 13.7055 47.6589 12.8708 47.6589 11.8447C47.6589 10.8187 46.824 9.98381 45.798 9.98381C45.7098 9.98381 45.6237 9.99209 45.5389 10.004C43.6871 7.43598 41.1605 5.40272 38.2216 4.66218C36.5076 4.18384 34.7254 4.29458 32.9755 4.29096C28.0255 4.29096 23.0787 4.29458 18.1319 4.28734C18.1095 8.24759 18.1064 12.2075 18.1155 16.1643C17.4255 16.4369 16.9353 17.1087 16.9353 17.8945C16.9353 18.9205 17.7702 19.7554 18.7962 19.7554C19.8222 19.7554 20.6571 18.9205 20.6571 17.8945C20.6571 17.1086 20.1665 16.4363 19.476 16.164C19.3292 12.6864 19.4512 9.18341 19.4165 5.69718C24.9194 5.71133 30.4225 5.66492 35.9222 5.71857Z" fill="black"/>
<path d="M35.762 32.3003C35.762 31.8644 36.1165 31.51 36.5523 31.51C36.9882 31.51 37.3427 31.8644 37.3427 32.3003C37.3427 32.4633 37.2928 32.6149 37.2079 32.7408C37.0977 32.8 36.9333 32.9214 36.7731 33.0553C36.7025 33.076 36.6294 33.0905 36.5523 33.0905C36.1165 33.0905 35.762 32.736 35.762 32.3003ZM49.8177 19.7035C50.2534 19.7035 50.6079 20.0579 50.6079 20.4939C50.6079 20.9296 50.2534 21.2841 49.8177 21.2841C49.3819 21.2841 49.0275 20.9296 49.0275 20.4939C49.0275 20.0579 49.3819 19.7035 49.8177 19.7035ZM41.838 32.5418C41.5584 32.1064 41.3176 31.6425 41.0835 31.1785C44.8938 29.5744 48.2785 26.4627 49.9747 22.3467C50.9274 22.2665 51.6786 21.4668 51.6786 20.4939C51.6786 19.4677 50.8437 18.6329 49.8177 18.6329C48.7917 18.6329 47.9569 19.4677 47.9569 20.4939C47.9569 21.0988 48.2485 21.6358 48.6971 21.976C46.841 25.9913 43.3405 29.1095 39.3533 30.1899C39.3207 30.3364 39.259 30.6253 39.2264 30.7717C43.8902 38.0414 48.5476 45.3183 53.2537 52.5595C52.213 52.5916 51.1754 52.5987 50.1347 52.5987C46.0532 46.265 41.9489 39.947 37.8797 33.6021C38.2091 33.2663 38.4132 32.8069 38.4132 32.3003C38.4132 31.2742 37.5783 30.4393 36.5523 30.4393C35.5262 30.4393 34.6913 31.2742 34.6913 32.3003C34.6913 33.3263 35.5262 34.1612 36.5523 34.1612C36.6056 34.1612 36.658 34.1576 36.7103 34.1533C40.9719 40.7353 45.2073 47.343 49.442 53.9476C51.4585 54.0084 53.7352 54.0044 55.7588 53.9937C54.7538 52.4716 45.8124 38.6767 41.838 32.5418Z" fill="black"/>
<path d="M8.07033 32.3002C7.6346 32.3002 7.28011 31.9457 7.28011 31.5101C7.28011 31.0742 7.6346 30.7197 8.07033 30.7197C8.50624 30.7197 8.86055 31.0742 8.86055 31.5101C8.86055 31.9457 8.50624 32.3002 8.07033 32.3002ZM9.7943 30.8124C9.51744 30.1312 8.84952 29.6492 8.07033 29.6492C7.0443 29.6492 6.2094 30.4841 6.2094 31.5101C6.2094 32.5362 7.0443 33.3709 8.07033 33.3709C8.77189 33.3709 9.38358 32.9803 9.70063 32.4056C12.4917 32.3852 15.2889 32.3957 18.0829 32.4168C18.1155 39.0406 18.031 45.9712 17.9692 52.5914H15.2015C15.1402 47.6152 15.1684 42.0444 15.1784 37.0532C15.8089 37.0524 16.3393 37.0503 16.5014 37.0469C16.1335 36.4043 15.7576 35.7667 15.3795 35.1297C15.068 34.6006 14.779 34.0564 14.4359 33.5458C13.7356 34.704 13.0489 35.8721 12.3727 37.0448C12.5301 37.0488 13.038 37.0514 13.6474 37.0527C13.6788 42.2621 13.6693 47.4714 13.65 52.6843C13.6479 53.1021 13.6479 53.9936 13.6479 53.9936H19.4262C19.4783 46.3884 19.3872 38.4503 19.4555 30.8451C16.4909 30.8451 13.2583 30.8446 9.7943 30.8124Z" fill="black"/>
<path d="M43.9142 52.9293C43.4784 52.9293 43.124 52.5748 43.124 52.1392C43.124 51.7033 43.4784 51.3488 43.9142 51.3488C44.3499 51.3488 44.7044 51.7033 44.7044 52.1392C44.7044 52.5748 44.3499 52.9293 43.9142 52.9293ZM22.9654 52.9293C22.5295 52.9293 22.1752 52.5748 22.1752 52.1391C22.1752 51.7032 22.5295 51.3487 22.9654 51.3487C23.4012 51.3487 23.7557 51.7032 23.7557 52.1391C23.7557 52.5748 23.4012 52.9293 22.9654 52.9293ZM43.9142 50.2783C43.7886 50.2783 43.6661 50.2911 43.5474 50.3149C39.5065 44.0323 35.6219 38.1079 31.5835 31.7851C31.2713 31.4032 31.0046 30.743 30.4354 30.8465C27.7784 30.8395 25.1179 30.8322 22.4574 30.8609C22.3746 37.3591 22.4442 43.861 22.4102 50.3628C21.6544 50.5995 21.1045 51.3062 21.1045 52.1391C21.1045 53.1651 21.9394 54 22.9654 54C23.9915 54 24.8264 53.1651 24.8264 52.1391C24.8264 51.3992 24.3912 50.7606 23.7643 50.4608C23.7395 44.4497 23.7517 38.4352 23.7324 32.424C26.0187 32.4168 28.2952 32.4058 30.573 32.4058C34.6132 38.8147 38.4575 44.5849 42.4843 50.9502C42.2154 51.2728 42.0533 51.6873 42.0533 52.1392C42.0533 53.1653 42.8882 54 43.9142 54C44.9402 54 45.7751 53.1653 45.7751 52.1392C45.7751 51.1132 44.9402 50.2783 43.9142 50.2783Z" fill="black"/>
<path d="M58.4637 43.7109V44.8574H66.7689V43.7109C66.7689 40.6349 64.5878 39.4604 62.6023 39.4604C60.7288 39.4604 58.4637 40.5511 58.4637 43.7109ZM58.4637 47.2624C58.4637 50.3104 60.9246 51.373 62.7981 51.373C63.8887 51.373 65.5107 50.7018 66.3495 49.8909L67.1325 50.8697C65.8741 51.9602 64.3641 52.4915 62.7143 52.4915C59.8059 52.4915 57.2053 50.7298 57.2053 47.6819V43.3754C57.2053 40.2715 59.8059 38.3698 62.6023 38.3698C65.6225 38.3698 67.9993 40.2154 67.9993 43.2355V46.0599H58.4637V47.2624Z" fill="black"/>
<path d="M70.2641 47.6538V43.2355C70.2641 40.2713 72.8647 38.3419 75.6891 38.3419C77.1153 38.3419 78.7371 38.8452 79.7718 39.6841L78.9888 40.7188C78.122 39.8799 76.7237 39.5163 75.717 39.5163C73.8435 39.5163 71.5225 40.6349 71.5225 43.6549V47.1784C71.5225 50.1985 73.8435 51.317 75.717 51.317C76.6678 51.317 77.9542 50.9535 78.821 50.2264L79.4922 51.289C78.4575 52.1 77.1153 52.4915 75.6611 52.4915C72.7529 52.4915 70.2641 50.646 70.2641 47.6538Z" fill="black"/>
<path d="M87.1262 39.5163C85.2526 39.5163 82.9596 40.6347 82.9596 43.6549V47.1784C82.9596 50.1985 85.2526 51.317 87.1262 51.317C88.9997 51.317 91.2648 50.1985 91.2648 47.1784V43.6549C91.2648 40.6347 88.9997 39.5163 87.1262 39.5163ZM81.7012 47.6538V43.2355C81.7012 40.2713 84.3018 38.3417 87.0982 38.3417C89.9225 38.3417 92.4952 40.2713 92.4952 43.2355V47.6538C92.4952 50.646 89.9784 52.4915 87.0703 52.4915C84.19 52.4915 81.7012 50.646 81.7012 47.6538Z" fill="black"/>
<path d="M106.001 52.3518H104.771V43.3754C104.771 40.6349 103.569 39.6003 101.583 39.6282C100.213 39.6562 97.9759 40.8866 96.4938 41.7815V52.3518H95.2634V38.5097H96.4938V40.3274C99.374 38.8173 100.577 38.3419 101.639 38.3419C104.184 38.3419 106.001 39.7961 106.001 43.0399V52.3518Z" fill="black"/>
<path d="M108.518 47.6538V43.2355C108.518 40.2713 111.119 38.3419 113.943 38.3419C115.369 38.3419 116.991 38.8452 118.026 39.6841L117.243 40.7188C116.376 39.8799 114.978 39.5163 113.971 39.5163C112.098 39.5163 109.777 40.6349 109.777 43.6549V47.1784C109.777 50.1985 112.098 51.317 113.971 51.317C114.922 51.317 116.208 50.9535 117.075 50.2264L117.746 51.289C116.712 52.1 115.369 52.4915 113.915 52.4915C111.007 52.4915 108.518 50.646 108.518 47.6538Z" fill="black"/>
<path d="M120.794 38.5097H122.024V52.3518H120.794V38.5097ZM121.437 34.5389C120.99 34.5389 120.626 34.1753 120.626 33.6999C120.626 33.2526 120.99 32.889 121.437 32.889C121.885 32.889 122.248 33.2526 122.248 33.6999C122.248 34.1753 121.885 34.5389 121.437 34.5389Z" fill="black"/>
<path d="M129.966 52.3518C128.148 52.3518 126.89 51.373 126.89 49.2478V32.889H128.092V48.9682C128.092 50.3104 128.651 51.2333 130.273 51.2333H130.385V52.3518H129.966Z" fill="black"/>
<path d="M133.88 38.5097H135.111V52.3518H133.88V38.5097ZM134.523 34.5389C134.076 34.5389 133.712 34.1753 133.712 33.6999C133.712 33.2526 134.076 32.889 134.523 32.889C134.971 32.889 135.334 33.2526 135.334 33.6999C135.334 34.1753 134.971 34.5389 134.523 34.5389Z" fill="black"/>
<path d="M144.254 39.5163C142.381 39.5163 140.088 40.6347 140.088 43.6549V47.1784C140.088 50.1985 142.381 51.317 144.254 51.317C146.128 51.317 148.393 50.1985 148.393 47.1784V43.6549C148.393 40.6347 146.128 39.5163 144.254 39.5163ZM138.829 47.6538V43.2355C138.829 40.2713 141.43 38.3417 144.226 38.3417C147.051 38.3417 149.623 40.2713 149.623 43.2355V47.6538C149.623 50.646 147.107 52.4915 144.198 52.4915C141.318 52.4915 138.829 50.646 138.829 47.6538Z" fill="black"/>
</svg>
