<svg width="30" height="31" viewBox="0 0 30 31" fill="none" xmlns="http://www.w3.org/2000/svg">
<g id="ScalabilityIcon">
<path id="Vector" d="M8.33239 2.5C7.41048 2.5 6.66565 3.24482 6.66565 4.16674C6.66565 5.08865 7.41048 5.83348 8.33239 5.83348H10.9731L0.488302 16.3235C-0.162767 16.9746 -0.162767 18.0319 0.488302 18.683C1.13937 19.3341 2.19671 19.3341 2.84778 18.683L13.3326 8.19296V10.8337C13.3326 11.7556 14.0774 12.5004 14.9994 12.5004C15.9213 12.5004 16.6661 11.7556 16.6661 10.8337V4.16674C16.6661 3.24482 15.9213 2.5 14.9994 2.5H8.33239ZM30 6.66685C30 6.00378 29.7366 5.36787 29.2677 4.899C28.7989 4.43014 28.163 4.16674 27.4999 4.16674C26.8368 4.16674 26.2009 4.43014 25.732 4.899C25.2632 5.36787 24.9998 6.00378 24.9998 6.66685C24.9998 7.32992 25.2632 7.96583 25.732 8.43469C26.2009 8.90355 26.8368 9.16696 27.4999 9.16696C28.163 9.16696 28.7989 8.90355 29.2677 8.43469C29.7366 7.96583 30 7.32992 30 6.66685ZM23.333 13.3338C23.333 13.0055 23.2684 12.6804 23.1427 12.3771C23.0171 12.0737 22.8329 11.7981 22.6008 11.566C22.3686 11.3338 22.093 11.1496 21.7897 11.024C21.4864 10.8984 21.1613 10.8337 20.8329 10.8337C20.5046 10.8337 20.1795 10.8984 19.8762 11.024C19.5729 11.1496 19.2972 11.3338 19.0651 11.566C18.8329 11.7981 18.6488 12.0737 18.5231 12.3771C18.3975 12.6804 18.3328 13.0055 18.3328 13.3338C18.3328 13.6621 18.3975 13.9872 18.5231 14.2906C18.6488 14.5939 18.8329 14.8695 19.0651 15.1016C19.2972 15.3338 19.5729 15.518 19.8762 15.6436C20.1795 15.7692 20.5046 15.8339 20.8329 15.8339C21.1613 15.8339 21.4864 15.7692 21.7897 15.6436C22.093 15.518 22.3686 15.3338 22.6008 15.1016C22.8329 14.8695 23.0171 14.5939 23.1427 14.2906C23.2684 13.9872 23.333 13.6621 23.333 13.3338ZM20.8329 22.5009C21.496 22.5009 22.1319 22.2375 22.6008 21.7686C23.0696 21.2997 23.333 20.6638 23.333 20.0008C23.333 19.3377 23.0696 18.7018 22.6008 18.2329C22.1319 17.7641 21.496 17.5007 20.8329 17.5007C20.1699 17.5007 19.534 17.7641 19.0651 18.2329C18.5962 18.7018 18.3328 19.3377 18.3328 20.0008C18.3328 20.6638 18.5962 21.2997 19.0651 21.7686C19.534 22.2375 20.1699 22.5009 20.8329 22.5009ZM23.333 26.6677C23.333 26.3394 23.2684 26.0143 23.1427 25.711C23.0171 25.4076 22.8329 25.132 22.6008 24.8999C22.3686 24.6677 22.093 24.4836 21.7897 24.3579C21.4864 24.2323 21.1613 24.1676 20.8329 24.1676C20.5046 24.1676 20.1795 24.2323 19.8762 24.3579C19.5729 24.4836 19.2972 24.6677 19.0651 24.8999C18.8329 25.132 18.6488 25.4076 18.5231 25.711C18.3975 26.0143 18.3328 26.3394 18.3328 26.6677C18.3328 26.996 18.3975 27.3211 18.5231 27.6245C18.6488 27.9278 18.8329 28.2034 19.0651 28.4356C19.2972 28.6677 19.5729 28.8519 19.8762 28.9775C20.1795 29.1032 20.5046 29.1678 20.8329 29.1678C21.1613 29.1678 21.4864 29.1032 21.7897 28.9775C22.093 28.8519 22.3686 28.6677 22.6008 28.4356C22.8329 28.2034 23.0171 27.9278 23.1427 27.6245C23.2684 27.3211 23.333 26.996 23.333 26.6677ZM30 26.6677C30 26.0046 29.7366 25.3687 29.2677 24.8999C28.7989 24.431 28.163 24.1676 27.4999 24.1676C26.8368 24.1676 26.2009 24.431 25.732 24.8999C25.2632 25.3687 24.9998 26.0046 24.9998 26.6677C24.9998 27.3308 25.2632 27.9667 25.732 28.4356C26.2009 28.9044 26.8368 29.1678 27.4999 29.1678C28.163 29.1678 28.7989 28.9044 29.2677 28.4356C29.7366 27.9667 30 27.3308 30 26.6677ZM14.166 22.5009C14.8291 22.5009 15.465 22.2375 15.9338 21.7686C16.4027 21.2997 16.6661 20.6638 16.6661 20.0008C16.6661 19.3377 16.4027 18.7018 15.9338 18.2329C15.465 17.7641 14.8291 17.5007 14.166 17.5007C13.5029 17.5007 12.867 17.7641 12.3981 18.2329C11.9293 18.7018 11.6659 19.3377 11.6659 20.0008C11.6659 20.6638 11.9293 21.2997 12.3981 21.7686C12.867 22.2375 13.5029 22.5009 14.166 22.5009ZM16.6661 26.6677C16.6661 26.0046 16.4027 25.3687 15.9338 24.8999C15.465 24.431 14.8291 24.1676 14.166 24.1676C13.5029 24.1676 12.867 24.431 12.3981 24.8999C11.9293 25.3687 11.6659 26.0046 11.6659 26.6677C11.6659 27.3308 11.9293 27.9667 12.3981 28.4356C12.867 28.9044 13.5029 29.1678 14.166 29.1678C14.8291 29.1678 15.465 28.9044 15.9338 28.4356C16.4027 27.9667 16.6661 27.3308 16.6661 26.6677ZM7.49902 29.1678C8.16209 29.1678 8.79801 28.9044 9.26687 28.4356C9.73573 27.9667 9.99913 27.3308 9.99913 26.6677C9.99913 26.0046 9.73573 25.3687 9.26687 24.8999C8.79801 24.431 8.16209 24.1676 7.49902 24.1676C6.83595 24.1676 6.20004 24.431 5.73118 24.8999C5.26232 25.3687 4.99892 26.0046 4.99892 26.6677C4.99892 27.3308 5.26232 27.9667 5.73118 28.4356C6.20004 28.9044 6.83595 29.1678 7.49902 29.1678ZM30 20.0008C30 19.3377 29.7366 18.7018 29.2677 18.2329C28.7989 17.7641 28.163 17.5007 27.4999 17.5007C26.8368 17.5007 26.2009 17.7641 25.732 18.2329C25.2632 18.7018 24.9998 19.3377 24.9998 20.0008C24.9998 20.6638 25.2632 21.2997 25.732 21.7686C26.2009 22.2375 26.8368 22.5009 27.4999 22.5009C28.163 22.5009 28.7989 22.2375 29.2677 21.7686C29.7366 21.2997 30 20.6638 30 20.0008ZM27.4999 15.8339C28.163 15.8339 28.7989 15.5705 29.2677 15.1016C29.7366 14.6328 30 13.9969 30 13.3338C30 12.6707 29.7366 12.0348 29.2677 11.566C28.7989 11.0971 28.163 10.8337 27.4999 10.8337C26.8368 10.8337 26.2009 11.0971 25.732 11.566C25.2632 12.0348 24.9998 12.6707 24.9998 13.3338C24.9998 13.9969 25.2632 14.6328 25.732 15.1016C26.2009 15.5705 26.8368 15.8339 27.4999 15.8339Z" fill="#000080"/>
</g>
</svg>
