<svg width="30" height="30" viewBox="0 0 30 30" fill="none" xmlns="http://www.w3.org/2000/svg">
<rect width="30" height="30" fill="#1E1E1E"/>
<g id="Components">
<rect width="846" height="347" transform="translate(-341 -85)" fill="white"/>
<g id="VisibilityAndAccountabilityIcon">
<path id="Vector" d="M14.9974 3C10.7894 3 7.41993 4.91639 4.96702 7.19732C2.52973 9.45741 0.899662 12.1654 0.128895 14.0245C-0.042965 14.4359 -0.042965 14.8941 0.128895 15.3055C0.899662 17.1646 2.52973 19.8726 4.96702 22.1327C7.41993 24.4136 10.7894 26.33 14.9974 26.33C19.2054 26.33 22.5749 24.4136 25.0278 22.1327C27.4651 19.8674 29.0951 17.1646 29.8711 15.3055C30.043 14.8941 30.043 14.4359 29.8711 14.0245C29.0951 12.1654 27.4651 9.45741 25.0278 7.19732C22.5749 4.91639 19.2054 3 14.9974 3ZM7.49805 14.665C7.49805 12.6762 8.28816 10.7688 9.69456 9.36246C11.101 7.95613 13.0084 7.16607 14.9974 7.16607C16.9863 7.16607 18.8938 7.95613 20.3002 9.36246C21.7066 10.7688 22.4967 12.6762 22.4967 14.665C22.4967 16.6538 21.7066 18.5612 20.3002 19.9675C18.8938 21.3739 16.9863 22.1639 14.9974 22.1639C13.0084 22.1639 11.101 21.3739 9.69456 19.9675C8.28816 18.5612 7.49805 16.6538 7.49805 14.665ZM14.9974 11.3321C14.9974 13.1704 13.5027 14.665 11.6644 14.665C11.2946 14.665 10.9405 14.6025 10.6072 14.4931C10.3207 14.3994 9.98741 14.5765 9.99783 14.8785C10.0135 15.2378 10.0655 15.5972 10.1645 15.9565C10.878 18.6228 13.6225 20.2059 16.289 19.4924C18.9554 18.779 20.5386 16.0346 19.8251 13.3683C19.247 11.2072 17.3357 9.75424 15.2109 9.66571C14.9089 9.6553 14.7318 9.98338 14.8255 10.275C14.9349 10.6083 14.9974 10.9624 14.9974 11.3321Z" fill="#000080"/>
</g>
</g>
</svg>
