<svg width="30" height="31" viewBox="0 0 30 31" fill="none" xmlns="http://www.w3.org/2000/svg">
<g id="OptimiseYourResourcesIcon">
<path id="Vector" d="M18.75 6.125H11.25L8.47266 1.95898C8.05664 1.33203 8.50195 0.5 9.25195 0.5H20.748C21.498 0.5 21.9434 1.33203 21.5273 1.95898L18.75 6.125ZM11.25 8H18.75C18.9727 8.14648 19.2246 8.31055 19.5117 8.49219C22.834 10.6191 30 15.2012 30 24.875C30 27.9805 27.4805 30.5 24.375 30.5H5.625C2.51953 30.5 0 27.9805 0 24.875C0 15.2012 7.16602 10.6191 10.4883 8.49219C10.7695 8.31055 11.0273 8.14648 11.25 8ZM16.1719 13.1562C16.1719 12.5117 15.6445 11.9844 15 11.9844C14.3555 11.9844 13.8281 12.5117 13.8281 13.1562V13.9766C13.3828 14.0762 12.9375 14.2344 12.5273 14.4746C11.7129 14.9609 11.0098 15.8105 11.0156 17.0469C11.0215 18.2363 11.7187 18.9863 12.4629 19.4316C13.1074 19.8184 13.9102 20.0645 14.5488 20.252L14.6484 20.2813C15.3867 20.5039 15.9258 20.6797 16.2891 20.9082C16.5879 21.0957 16.6289 21.2246 16.6348 21.3887C16.6406 21.6816 16.5293 21.8574 16.2891 22.0039C15.9961 22.1855 15.5332 22.2969 15.0352 22.2793C14.3848 22.2559 13.7754 22.0508 12.9785 21.7813C12.8438 21.7344 12.7031 21.6875 12.5566 21.6406C11.9414 21.4355 11.2793 21.7695 11.0742 22.3789C10.8691 22.9883 11.2031 23.6563 11.8125 23.8613C11.9238 23.8965 12.0469 23.9375 12.1699 23.9844C12.6562 24.1543 13.2187 24.3477 13.8223 24.4766V25.3438C13.8223 25.9883 14.3496 26.5156 14.9941 26.5156C15.6387 26.5156 16.166 25.9883 16.166 25.3438V24.5352C16.6348 24.4355 17.1035 24.2715 17.5254 24.0078C18.3633 23.4863 18.9961 22.5957 18.9785 21.3711C18.9609 20.1816 18.293 19.4141 17.5371 18.9336C16.8633 18.5117 16.0195 18.2539 15.3633 18.0547L15.3223 18.043C14.5723 17.8145 14.0391 17.6504 13.6641 17.4277C13.3594 17.2461 13.3535 17.1406 13.3535 17.0352C13.3535 16.8184 13.4355 16.6543 13.7168 16.4902C14.0332 16.3027 14.5137 16.1914 14.9766 16.1973C15.5391 16.2031 16.1602 16.3262 16.8047 16.502C17.4316 16.666 18.0703 16.2969 18.2402 15.6699C18.4102 15.043 18.0352 14.4043 17.4082 14.2344C17.0273 14.1348 16.6055 14.0352 16.1719 13.959V13.1562Z" fill="#000080"/>
</g>
</svg>
