<svg width="30" height="31" viewBox="0 0 30 31" fill="none" xmlns="http://www.w3.org/2000/svg">
<path d="M15 0.5C18.9782 0.5 22.7936 2.08035 25.6066 4.8934C28.4196 7.70644 30 11.5218 30 15.5C30 19.4782 28.4196 23.2936 25.6066 26.1066C22.7936 28.9196 18.9782 30.5 15 30.5C11.0218 30.5 7.20644 28.9196 4.3934 26.1066C1.58035 23.2936 0 19.4782 0 15.5C0 11.5218 1.58035 7.70644 4.3934 4.8934C7.20644 2.08035 11.0218 0.5 15 0.5ZM13.5938 7.53125V15.5C13.5938 15.9688 13.8281 16.4082 14.2207 16.6719L19.8457 20.4219C20.4902 20.8555 21.3633 20.6797 21.7969 20.0293C22.2305 19.3789 22.0547 18.5117 21.4043 18.0781L16.4062 14.75V7.53125C16.4062 6.75195 15.7793 6.125 15 6.125C14.2207 6.125 13.5938 6.75195 13.5938 7.53125Z" fill="#000080"/>
</svg>
